<svg id="Layer_1" data-name="Layer 1" xmlns="http://www.w3.org/2000/svg" viewBox="0 0 213.25 260"><defs><style>.cls-1{fill:#409bd6;}.cls-2{fill:none;stroke:#fff;stroke-miterlimit:10;stroke-width:10px;}.cls-3{font-size:72px;fill:#223341;font-family:VladimirScript, Vladimir Script;}.cls-4{font-size:21px;fill:#1d1d1b;font-family:PoorRichard-Regular, Poor Richard;letter-spacing:1.55em;}.cls-5{letter-spacing:0.03em;}</style></defs><title>logo1</title><path class="cls-1" d="M329.12,472.07H251.07a130.14,130.14,0,0,1-130-130c0-71.68,58.32-130,130-130h74.39v60H251.07a70,70,0,0,0,0,140h78.05Z" transform="translate(-121.07 -212.07)"/><path class="cls-2" d="M325.46,243.29H250.17a99.1,99.1,0,0,0-99.1,99.09h0a99.1,99.1,0,0,0,96,99.05l82.06,1.66" transform="translate(-121.07 -212.07)"/><polygon class="cls-1" points="204.39 0 204.39 60 184.93 30 204.39 0"/><polygon class="cls-1" points="208.05 260 208.05 200 184.93 230 208.05 260"/><text class="cls-3" transform="translate(67.81 140.98)">Crane<tspan class="cls-4"><tspan x="0" y="25.2" xml:space="preserve">		</tspan><tspan class="cls-5" x="72" y="25.2">CLOUD</tspan></tspan></text></svg>